<?xml version="1.0" encoding="iso-8859-1"?>
<!-- Uploaded to: SVG Repo, www.svgrepo.com, Generator: SVG Repo Mixer Tools -->
<svg height="800px" width="800px" version="1.1" id="Capa_1" xmlns="http://www.w3.org/2000/svg" xmlns:xlink="http://www.w3.org/1999/xlink" 
	 viewBox="0 0 291.643 291.643" xml:space="preserve">
<g>
	<circle style="fill:#010002;" cx="145.816" cy="152.908" r="29.904"/>
	<path style="fill:#010002;" d="M196.622,222.082c21.718-15.931,34.995-41.413,34.995-69.179c0-47.309-38.487-85.801-85.796-85.801
		s-85.796,38.492-85.796,85.801c0,28.62,14.522,55.168,37.562,70.931c9.143,6.255,20.511,1.931,23.959-7.125
		c3.448-9.051-2.584-19.39-10.595-27.032c-9.877-9.42-15.844-22.675-15.844-36.779c0-27.968,22.752-50.719,50.714-50.719
		c27.968,0,50.714,22.752,50.714,50.719c0,13.587-5.374,26.243-14.506,35.544c-7.756,7.903-13.413,18.428-9.643,27.348
		C176.166,224.72,187.697,228.625,196.622,222.082z"/>
	<path style="fill:#010002;" d="M78.42,282.259c10.655,5.548,22.746,0.517,26.156-9.426c3.416-9.943-3.187-20.984-13.538-27.097
		c-32.357-19.102-52.966-54.184-52.966-92.828c0-59.416,48.337-107.748,107.748-107.748c59.416,0,107.748,48.337,107.748,107.748
		c0,38.193-20.266,73.063-52.106,92.301c-10.285,6.211-16.785,17.318-13.266,27.233c3.519,9.915,15.654,14.827,26.254,9.165
		c46.912-25.052,77.191-74.396,77.191-128.699c0-80.406-65.416-145.821-145.821-145.821S0,72.502,0,152.908
		C0,207.831,30.769,257.441,78.42,282.259z"/>
</g>
</svg>